<svg xmlns="http://www.w3.org/2000/svg" viewBox="0 0 64 64">
  <rect width="64" height="64" rx="12" fill="#060606"/>
  <path d="M40 22c-2.6-2.2-6-3.4-9.6-3.4-5.4 0-9.2 2.7-9.2 6.9 0 8.7 16.4 5.2 16.4 12.6 0 3.4-3.4 5.6-8.2 5.6-3.8 0-7.2-1.4-9.8-3.8" fill="none" stroke="#f4f1ec" stroke-width="4.5" stroke-linecap="round"/>
  <rect x="18" y="50" width="4" height="4" rx="1" fill="rgb(228,90,88)"/>
  <rect x="24" y="50" width="4" height="4" rx="1" fill="rgb(234,141,17)"/>
  <rect x="30" y="50" width="4" height="4" rx="1" fill="rgb(250,196,33)"/>
  <rect x="36" y="50" width="4" height="4" rx="1" fill="rgb(51,174,116)"/>
  <rect x="42" y="50" width="4" height="4" rx="1" fill="rgb(40,148,209)"/>
</svg>
